<?xml version="1.0" encoding="UTF-8" standalone="no"?><svg xmlns="http://www.w3.org/2000/svg" xmlns:xlink="http://www.w3.org/1999/xlink" contentScriptType="application/ecmascript" contentStyleType="text/css" height="290px" preserveAspectRatio="none" style="width:615px;height:290px;" version="1.1" viewBox="0 0 615 290" width="615px" zoomAndPan="magnify"><defs><filter height="300%" id="fjozvyjfyn3p7" width="300%" x="-1" y="-1"><feGaussianBlur result="blurOut" stdDeviation="2.0"/><feColorMatrix in="blurOut" result="blurOut2" type="matrix" values="0 0 0 0 0 0 0 0 0 0 0 0 0 0 0 0 0 0 .4 0"/><feOffset dx="4.0" dy="4.0" in="blurOut2" result="blurOut3"/><feBlend in="SourceGraphic" in2="blurOut3" mode="normal"/></filter></defs><g><!--MD5=[2cb47ba637a0d19583e6199456f6ad0b]
class Player--><rect fill="#FEFECE" filter="url(#fjozvyjfyn3p7)" height="112.0234" id="Player" style="stroke: #A80036; stroke-width: 1.5;" width="152" x="452.5" y="167"/><ellipse cx="505.25" cy="183" fill="#ADD1B2" rx="11" ry="11" style="stroke: #A80036; stroke-width: 1.0;"/><path d="M508.2188,188.6406 Q507.6406,188.9375 507,189.0781 Q506.3594,189.2344 505.6563,189.2344 Q503.1563,189.2344 501.8281,187.5938 Q500.5156,185.9375 500.5156,182.8125 Q500.5156,179.6875 501.8281,178.0313 Q503.1563,176.375 505.6563,176.375 Q506.3594,176.375 507,176.5313 Q507.6563,176.6875 508.2188,176.9844 L508.2188,179.7031 Q507.5938,179.125 507,178.8594 Q506.4063,178.5781 505.7813,178.5781 Q504.4375,178.5781 503.75,179.6563 Q503.0625,180.7188 503.0625,182.8125 Q503.0625,184.9063 503.75,185.9844 Q504.4375,187.0469 505.7813,187.0469 Q506.4063,187.0469 507,186.7813 Q507.5938,186.5 508.2188,185.9219 L508.2188,188.6406 Z "/><text fill="#000000" font-family="sans-serif" font-size="12" lengthAdjust="spacingAndGlyphs" textLength="38" x="525.75" y="187.1543">Player</text><line style="stroke: #A80036; stroke-width: 1.5;" x1="453.5" x2="603.5" y1="199" y2="199"/><rect fill="none" height="6" style="stroke: #C82930; stroke-width: 1.0;" width="6" x="460.5" y="207"/><text fill="#000000" font-family="sans-serif" font-size="11" lengthAdjust="spacingAndGlyphs" textLength="126" x="472.5" y="213.2104">frames_ : vector&lt;int&gt;</text><rect fill="none" height="6" style="stroke: #C82930; stroke-width: 1.0;" width="6" x="460.5" y="219.8047"/><text fill="#000000" font-family="sans-serif" font-size="11" lengthAdjust="spacingAndGlyphs" textLength="38" x="472.5" y="226.0151">name_</text><line style="stroke: #A80036; stroke-width: 1.5;" x1="453.5" x2="603.5" y1="232.6094" y2="232.6094"/><ellipse cx="463.5" cy="243.6094" fill="#84BE84" rx="3" ry="3" style="stroke: #038048; stroke-width: 1.0;"/><text fill="#000000" font-family="sans-serif" font-size="11" lengthAdjust="spacingAndGlyphs" textLength="59" x="472.5" y="246.8198">getScore()</text><ellipse cx="463.5" cy="256.4141" fill="#84BE84" rx="3" ry="3" style="stroke: #038048; stroke-width: 1.0;"/><text fill="#000000" font-family="sans-serif" font-size="11" lengthAdjust="spacingAndGlyphs" textLength="51" x="472.5" y="259.6245">isStrike()</text><ellipse cx="463.5" cy="269.2188" fill="#84BE84" rx="3" ry="3" style="stroke: #038048; stroke-width: 1.0;"/><text fill="#000000" font-family="sans-serif" font-size="11" lengthAdjust="spacingAndGlyphs" textLength="52" x="472.5" y="272.4292">isSpare()</text><!--MD5=[c7406d9dec6d6150dc3707dbd036085a]
class bowlingLane--><rect fill="#FEFECE" filter="url(#fjozvyjfyn3p7)" height="99.2188" id="bowlingLane" style="stroke: #A80036; stroke-width: 1.5;" width="174" x="243.5" y="173.5"/><ellipse cx="287.75" cy="189.5" fill="#ADD1B2" rx="11" ry="11" style="stroke: #A80036; stroke-width: 1.0;"/><path d="M290.7188,195.1406 Q290.1406,195.4375 289.5,195.5781 Q288.8594,195.7344 288.1563,195.7344 Q285.6563,195.7344 284.3281,194.0938 Q283.0156,192.4375 283.0156,189.3125 Q283.0156,186.1875 284.3281,184.5313 Q285.6563,182.875 288.1563,182.875 Q288.8594,182.875 289.5,183.0313 Q290.1563,183.1875 290.7188,183.4844 L290.7188,186.2031 Q290.0938,185.625 289.5,185.3594 Q288.9063,185.0781 288.2813,185.0781 Q286.9375,185.0781 286.25,186.1563 Q285.5625,187.2188 285.5625,189.3125 Q285.5625,191.4063 286.25,192.4844 Q286.9375,193.5469 288.2813,193.5469 Q288.9063,193.5469 289.5,193.2813 Q290.0938,193 290.7188,192.4219 L290.7188,195.1406 Z "/><text fill="#000000" font-family="sans-serif" font-size="12" lengthAdjust="spacingAndGlyphs" textLength="77" x="308.25" y="193.6543">bowlingLane</text><line style="stroke: #A80036; stroke-width: 1.5;" x1="244.5" x2="416.5" y1="205.5" y2="205.5"/><rect fill="none" height="6" style="stroke: #C82930; stroke-width: 1.0;" width="6" x="251.5" y="213.5"/><text fill="#000000" font-family="sans-serif" font-size="11" lengthAdjust="spacingAndGlyphs" textLength="101" x="263.5" y="219.7104">laneNumber_ : int</text><rect fill="none" height="6" style="stroke: #C82930; stroke-width: 1.0;" width="6" x="251.5" y="226.3047"/><text fill="#000000" font-family="sans-serif" font-size="11" lengthAdjust="spacingAndGlyphs" textLength="148" x="263.5" y="232.5151">players_ : vector&lt;Player&gt;</text><line style="stroke: #A80036; stroke-width: 1.5;" x1="244.5" x2="416.5" y1="239.1094" y2="239.1094"/><ellipse cx="254.5" cy="250.1094" fill="#84BE84" rx="3" ry="3" style="stroke: #038048; stroke-width: 1.0;"/><text fill="#000000" font-family="sans-serif" font-size="11" lengthAdjust="spacingAndGlyphs" textLength="79" x="263.5" y="253.3198">getLaneData()</text><ellipse cx="254.5" cy="262.9141" fill="#84BE84" rx="3" ry="3" style="stroke: #038048; stroke-width: 1.0;"/><text fill="#000000" font-family="sans-serif" font-size="11" lengthAdjust="spacingAndGlyphs" textLength="90" x="263.5" y="266.1245">getLaneStatus()</text><!--MD5=[b6dcce5e5ef3c84b0b048d11301373dd]
class Game--><rect fill="#FEFECE" filter="url(#fjozvyjfyn3p7)" height="99.2188" id="Game" style="stroke: #A80036; stroke-width: 1.5;" width="305" x="178" y="8"/><ellipse cx="308.25" cy="24" fill="#ADD1B2" rx="11" ry="11" style="stroke: #A80036; stroke-width: 1.0;"/><path d="M311.2188,29.6406 Q310.6406,29.9375 310,30.0781 Q309.3594,30.2344 308.6563,30.2344 Q306.1563,30.2344 304.8281,28.5938 Q303.5156,26.9375 303.5156,23.8125 Q303.5156,20.6875 304.8281,19.0313 Q306.1563,17.375 308.6563,17.375 Q309.3594,17.375 310,17.5313 Q310.6563,17.6875 311.2188,17.9844 L311.2188,20.7031 Q310.5938,20.125 310,19.8594 Q309.4063,19.5781 308.7813,19.5781 Q307.4375,19.5781 306.75,20.6563 Q306.0625,21.7188 306.0625,23.8125 Q306.0625,25.9063 306.75,26.9844 Q307.4375,28.0469 308.7813,28.0469 Q309.4063,28.0469 310,27.7813 Q310.5938,27.5 311.2188,26.9219 L311.2188,29.6406 Z "/><text fill="#000000" font-family="sans-serif" font-size="12" lengthAdjust="spacingAndGlyphs" textLength="36" x="328.75" y="28.1543">Game</text><line style="stroke: #A80036; stroke-width: 1.5;" x1="179" x2="482" y1="40" y2="40"/><rect fill="none" height="6" style="stroke: #C82930; stroke-width: 1.0;" width="6" x="186" y="48"/><text fill="#000000" font-family="sans-serif" font-size="11" lengthAdjust="spacingAndGlyphs" textLength="279" x="198" y="54.2104">rawLanes_ : vector&lt;pair&lt;name,vector&lt;string&gt;&gt;</text><rect fill="none" height="6" style="stroke: #C82930; stroke-width: 1.0;" width="6" x="186" y="60.8047"/><text fill="#000000" font-family="sans-serif" font-size="11" lengthAdjust="spacingAndGlyphs" textLength="172" x="198" y="67.0151">lanes_ : vector&lt;bowlingLane&gt;</text><line style="stroke: #A80036; stroke-width: 1.5;" x1="179" x2="482" y1="73.6094" y2="73.6094"/><ellipse cx="189" cy="84.6094" fill="#84BE84" rx="3" ry="3" style="stroke: #038048; stroke-width: 1.0;"/><text fill="#000000" font-family="sans-serif" font-size="11" lengthAdjust="spacingAndGlyphs" textLength="60" x="198" y="87.8198">printData()</text><ellipse cx="189" cy="97.4141" fill="#84BE84" rx="3" ry="3" style="stroke: #038048; stroke-width: 1.0;"/><text fill="#000000" font-family="sans-serif" font-size="11" lengthAdjust="spacingAndGlyphs" textLength="94" x="198" y="100.6245">saveDataToFile()</text><!--MD5=[4a14e10fb628241ec239e1932b0ece6e]
class DirectoryHandler--><rect fill="#FEFECE" filter="url(#fjozvyjfyn3p7)" height="73.6094" id="DirectoryHandler" style="stroke: #A80036; stroke-width: 1.5;" width="137" x="6" y="20.5"/><ellipse cx="21" cy="36.5" fill="#ADD1B2" rx="11" ry="11" style="stroke: #A80036; stroke-width: 1.0;"/><path d="M23.9688,42.1406 Q23.3906,42.4375 22.75,42.5781 Q22.1094,42.7344 21.4063,42.7344 Q18.9063,42.7344 17.5781,41.0938 Q16.2656,39.4375 16.2656,36.3125 Q16.2656,33.1875 17.5781,31.5313 Q18.9063,29.875 21.4063,29.875 Q22.1094,29.875 22.75,30.0313 Q23.4063,30.1875 23.9688,30.4844 L23.9688,33.2031 Q23.3438,32.625 22.75,32.3594 Q22.1563,32.0781 21.5313,32.0781 Q20.1875,32.0781 19.5,33.1563 Q18.8125,34.2188 18.8125,36.3125 Q18.8125,38.4063 19.5,39.4844 Q20.1875,40.5469 21.5313,40.5469 Q22.1563,40.5469 22.75,40.2813 Q23.3438,40 23.9688,39.4219 L23.9688,42.1406 Z "/><text fill="#000000" font-family="sans-serif" font-size="12" lengthAdjust="spacingAndGlyphs" textLength="105" x="35" y="40.6543">DirectoryHandler</text><line style="stroke: #A80036; stroke-width: 1.5;" x1="7" x2="142" y1="52.5" y2="52.5"/><rect fill="none" height="6" style="stroke: #C82930; stroke-width: 1.0;" width="6" x="14" y="60.5"/><text fill="#000000" font-family="sans-serif" font-size="11" lengthAdjust="spacingAndGlyphs" textLength="83" x="26" y="66.7104">directoryName</text><line style="stroke: #A80036; stroke-width: 1.5;" x1="7" x2="142" y1="73.3047" y2="73.3047"/><ellipse cx="17" cy="84.3047" fill="#84BE84" rx="3" ry="3" style="stroke: #038048; stroke-width: 1.0;"/><text fill="#000000" font-family="sans-serif" font-size="11" lengthAdjust="spacingAndGlyphs" textLength="103" x="26" y="87.5151">getDirectoryData()</text><!--MD5=[7ac9537048e118c4ce67eeb115b936b9]
reverse link Game to bowlingLane--><path d="M330.5,120.22 C330.5,137.77 330.5,156.63 330.5,173.29 " fill="none" id="Game&lt;-bowlingLane" style="stroke: #A80036; stroke-width: 1.0;"/><polygon fill="#A80036" points="330.5,107.11,326.5,113.11,330.5,119.11,334.5,113.11,330.5,107.11" style="stroke: #A80036; stroke-width: 1.0;"/><!--MD5=[95209fd31e7bafc5426236df379a95fc]
reverse link bowlingLane to Player--><path d="M430.52,223 C437.74,223 444.97,223 452.2,223 " fill="none" id="bowlingLane&lt;-Player" style="stroke: #A80036; stroke-width: 1.0;"/><polygon fill="#A80036" points="417.51,223,423.51,227,429.51,223,423.51,219,417.51,223" style="stroke: #A80036; stroke-width: 1.0;"/><!--MD5=[c83af71f893e2933ff53c7e28df76dd8]
reverse link DirectoryHandler to Game--><path d="M148.6,57.5 C158.34,57.5 168.09,57.5 177.83,57.5 " fill="none" id="DirectoryHandler&lt;-Game" style="stroke: #A80036; stroke-width: 1.0;"/><polygon fill="#A80036" points="143.5,57.5,152.5,61.5,148.5,57.5,152.5,53.5,143.5,57.5" style="stroke: #A80036; stroke-width: 1.0;"/><!--MD5=[7347fce9ecfc920868badf9aa764443a]
@startuml bowling-project

class Player{
    -frames_ : vector<int>
    -name_
    +getScore()
    +isStrike()
    +isSpare()
}

class bowlingLane{
    -laneNumber_ : int
    -players_ : vector<Player>
    +getLaneData()
    +getLaneStatus()
}

class Game{
    -rawLanes_ : vector<pair<name,vector<string>>
    -lanes_ : vector<bowlingLane>
    +printData()
    +saveDataToFile()
}


class DirectoryHandler{
    -directoryName
    +getDirectoryData()
}

Game *-down- bowlingLane
bowlingLane *- Player


Game -left-> DirectoryHandler

@enduml

PlantUML version 1.2020.10(Sun May 17 11:35:57 CEST 2020)
(GPL source distribution)
Java Runtime: OpenJDK Runtime Environment
JVM: OpenJDK 64-Bit Server VM
Java Version: 14.0.1+7-Ubuntu-1ubuntu1
Operating System: Linux
Default Encoding: UTF-8
Language: en
Country: US
--></g></svg>